<svg width="26" height="16" viewBox="0 0 26 16" fill="none" xmlns="http://www.w3.org/2000/svg">
<path d="M25.1545 11.2822C25.0352 3.75384 24.052 1.60912 16.528 0.250488C16.528 0.250488 15.4689 1.60006 13.0003 1.60006C10.5318 1.60006 9.47249 0.250488 9.47249 0.250488C2.03066 1.59357 0.987643 3.70694 0.8505 11.0372C0.839254 11.6358 0.834043 11.6673 0.832031 11.5978C0.832488 11.728 0.833037 11.9688 0.833037 12.3887C0.833037 12.3887 2.62431 15.9998 13.0003 15.9998C23.3766 15.9998 25.1677 12.3887 25.1677 12.3887C25.1677 12.1189 25.1678 11.9313 25.1681 11.8037C25.1661 11.8466 25.1621 11.7633 25.1545 11.2818V11.2822Z" fill="black"/>
</svg>
