<svg width="30" height="30" viewBox="0 0 30 30" fill="none" xmlns="http://www.w3.org/2000/svg">
<g clip-path="url(#clip0)">
<path d="M15.4854 11.8063H17.9297V10.4924C17.9297 9.02459 18.0786 7.92933 18.3766 7.2066C18.6745 6.4832 19.223 5.89431 20.022 5.43993C20.8211 4.98555 21.8318 4.75834 23.0543 4.7583C24.3074 4.7583 25.5349 4.95526 26.7366 5.34917L26.1411 8.56988C25.4411 8.3943 24.7671 8.30651 24.1193 8.30651C23.482 8.30651 23.0251 8.46269 22.7485 8.77506C22.4719 9.08743 22.3336 9.68718 22.3336 10.5743V11.8064H25.6236V15.4374H22.3336V29.2556H17.9296V15.4374H15.4854V11.8064L15.4854 11.8063Z" fill="white"/>
</g>
<defs>
<clipPath id="clip0">
<rect width="30" height="30" fill="white"/>
</clipPath>
</defs>
</svg>
