<svg width="35" height="35" viewBox="0 0 35 35" fill="none" xmlns="http://www.w3.org/2000/svg">
<g clip-path="url(#clip0)">
<path d="M8.20312 17.5C8.20312 15.7659 8.68089 14.1415 9.51091 12.7505V6.85059H3.61095C1.2693 9.89176 0 13.5981 0 17.5C0 21.4018 1.2693 25.1081 3.61095 28.1493H9.51091V22.2494C8.68089 20.8584 8.20312 19.234 8.20312 17.5Z" fill="#FBBD00"/>
<path d="M17.5 26.7971L13.3984 30.8987L17.5 35.0002C21.4019 35.0002 25.1082 33.7309 28.1494 31.3893V25.4956H22.2557C20.8526 26.3286 19.2214 26.7971 17.5 26.7971Z" fill="#0F9D58"/>
<path d="M9.5108 22.2495L3.61084 28.1495C4.07445 28.7516 4.57929 29.3282 5.12555 29.8745C8.43086 33.1798 12.8255 35.0001 17.4999 35.0001V26.797C14.1076 26.797 11.1345 24.9704 9.5108 22.2495Z" fill="#31AA52"/>
<path d="M35 17.4998C35 16.4351 34.9036 15.3684 34.7134 14.3295L34.5596 13.4888H17.5V21.6919H25.8024C24.9962 23.2957 23.7565 24.6041 22.2556 25.4953L28.1493 31.3889C28.7514 30.9253 29.328 30.4205 29.8743 29.8742C33.1797 26.5689 35 22.1742 35 17.4998Z" fill="#3C79E6"/>
<path d="M24.0739 10.9261L24.7989 11.6511L30.5994 5.85067L29.8744 5.12565C26.5691 1.82034 22.1745 0 17.5 0L13.3984 4.10156L17.5 8.20312C19.9832 8.20312 22.3179 9.17014 24.0739 10.9261Z" fill="#CF2D48"/>
<path d="M17.5 8.20312V0C12.8255 0 8.43093 1.82034 5.12555 5.12559C4.57929 5.67185 4.07445 6.24846 3.61084 6.85063L9.5108 12.7506C11.1345 10.0297 14.1077 8.20312 17.5 8.20312Z" fill="#EB4132"/>
</g>
<defs>
<clipPath id="clip0">
<rect width="35" height="35" fill="white"/>
</clipPath>
</defs>
</svg>
