<svg width="101" height="113" viewBox="0 0 101 113" fill="none" xmlns="http://www.w3.org/2000/svg">
<path opacity="0.98" d="M49.4833 0.299402C28.2104 0.718113 11.2508 14.2581 11.2508 30.9971V44.0488H0.961914V88.4342H0.97686C0.961917 88.7548 0.961914 89.0762 0.961914 89.4001C0.961914 102.29 13.0378 112.665 28.047 112.665H72.9231C87.9323 112.665 100.024 102.29 100.024 89.4001C100.024 89.0763 100.008 88.7546 99.9932 88.4342H100.024V44.0488H89.7496V30.9971C89.7496 13.9927 72.2535 0.299402 50.5077 0.299402C50.1679 0.299402 49.821 0.292617 49.4833 0.299402ZM49.3026 9.25186C49.5607 9.24696 49.8263 9.25186 50.0859 9.25186C62.518 9.02475 74.7376 16.2167 77.2765 25.7666C77.7088 31.8603 77.9522 37.9491 78.09 44.0485H22.9867C22.9736 41.132 22.9563 38.2224 22.8813 35.3078C19.7345 22.8366 33.0405 9.55041 49.3035 9.25149L49.3026 9.25186ZM50.4474 60.2827C51.034 60.2827 51.6271 60.3186 52.225 60.3888C58.6026 61.1369 63.0037 65.7795 62.0468 70.7664C61.6063 73.0628 60.0914 75.0387 57.9795 76.4206L62.0619 96.4342H38.9234L42.9907 76.4206C39.982 74.4448 38.3129 71.3183 38.9384 68.0569C39.8055 63.5373 44.7771 60.2945 50.4474 60.2824V60.2827Z" fill="black"/>
</svg>
