<svg width="328" height="45" viewBox="0 0 328 45" fill="none" xmlns="http://www.w3.org/2000/svg">
<path d="M0 2C0 0.89543 0.89543 0 2 0H108C109.105 0 110 0.895431 110 2V43C110 44.1046 109.105 45 108 45H2C0.895429 45 0 44.1046 0 43V2Z" fill="#25479B"/>
<path d="M108 2C108 0.89543 108.895 0 110 0H216C217.105 0 218 0.895431 218 2V43C218 44.1046 217.105 45 216 45H110C108.895 45 108 44.1046 108 43V2Z" fill="#0F8EE0"/>
<path d="M218.5 2C218.5 1.17157 219.172 0.5 220 0.5H326C326.828 0.5 327.5 1.17157 327.5 2V43C327.5 43.8284 326.828 44.5 326 44.5H220C219.172 44.5 218.5 43.8284 218.5 43V2Z" fill="white" stroke="#0680F1"/>
</svg>
